<?xml version="1.0" encoding="UTF-8" standalone="no"?><!DOCTYPE svg PUBLIC "-//W3C//DTD SVG 1.1//EN" "http://www.w3.org/Graphics/SVG/1.1/DTD/svg11.dtd"><svg width="100%" height="100%" viewBox="0 0 16 16" version="1.1" xmlns="http://www.w3.org/2000/svg" xmlns:xlink="http://www.w3.org/1999/xlink" xml:space="preserve" xmlns:serif="http://www.serif.com/" style="fill-rule:evenodd;clip-rule:evenodd;stroke-linejoin:round;stroke-miterlimit:2;"><path id="path934" d="M14.583,3.778l-3.91,2.257c-0.252,0.145 -0.563,0.145 -0.815,-0c-0.251,-0.145 -0.407,-0.415 -0.407,-0.706l-0,-4.514c-0,-0.291 0.156,-0.561 0.407,-0.706c0.252,-0.145 0.563,-0.145 0.815,0l3.91,2.257c0.252,0.146 0.407,0.415 0.407,0.706c0,0.291 -0.155,0.56 -0.407,0.706Z" style="fill:#a5efac;fill-rule:nonzero;"/><path d="M14.99,11.488c0,-0.283 -0.229,-0.512 -0.512,-0.512l-12.956,-0c-0.283,-0 -0.512,0.229 -0.512,0.512l-0,1.024c-0,0.283 0.229,0.512 0.512,0.512l12.956,0c0.283,0 0.512,-0.229 0.512,-0.512l0,-1.024Z" style="fill:#a5efac;fill-opacity:0.6;"/><path d="M14.99,8.512c0,-0.283 -0.229,-0.512 -0.512,-0.512l-12.956,-0c-0.283,-0 -0.512,0.229 -0.512,0.512l-0,1.024c-0,0.283 0.229,0.512 0.512,0.512l12.956,0c0.283,0 0.512,-0.229 0.512,-0.512l0,-1.024Z" style="fill:#a5efac;"/><path d="M14.99,14.464c0,-0.283 -0.229,-0.512 -0.512,-0.512l-12.956,-0c-0.283,-0 -0.512,0.229 -0.512,0.512l-0,1.024c-0,0.283 0.229,0.512 0.512,0.512l12.956,0c0.283,0 0.512,-0.229 0.512,-0.512l0,-1.024Z" style="fill:#a5efac;fill-opacity:0.3;"/></svg>