<?xml version="1.0" encoding="UTF-8" standalone="no"?>
<svg
   width="100%"
   height="100%"
   viewBox="0 0 256 256"
   version="1.1"
   xml:space="preserve"
   style="fill-rule:evenodd;clip-rule:evenodd;stroke-linejoin:round;stroke-miterlimit:2;"
   id="svg10"
   sodipodi:docname="robot_tutor_no_connection.svg"
   inkscape:version="1.1.1 (3bf5ae0, 2021-09-20)"
   inkscape:export-filename="/home/gdquest/Repositories/learn-gdscript-app/ui/components/robot_tutor_no_connection.png"
   inkscape:export-xdpi="72"
   inkscape:export-ydpi="72"
   xmlns:inkscape="http://www.inkscape.org/namespaces/inkscape"
   xmlns:sodipodi="http://sodipodi.sourceforge.net/DTD/sodipodi-0.dtd"
   xmlns="http://www.w3.org/2000/svg"
   xmlns:svg="http://www.w3.org/2000/svg"><defs
     id="defs14"><style
       id="style824">.cls-1{fill:#9090b7;}.cls-2{fill:#fff540;}</style></defs><sodipodi:namedview
     id="namedview12"
     pagecolor="#ffffff"
     bordercolor="#111111"
     borderopacity="1"
     inkscape:pageshadow="0"
     inkscape:pageopacity="0"
     inkscape:pagecheckerboard="1"
     showgrid="false"
     inkscape:current-layer="svg10" /><path
     class="cls-1"
     d="M 250.50865,98.521157 231.38568,69.620782 a 3.8467805,3.8467805 0 0 0 -0.39617,-0.507093 V 34.912601 h -0.0951 a 8.5413581,8.5413581 0 0 0 -6.17624,-6.893304 L 131.61897,1.0126003 A 9.1118385,9.1118385 0 0 0 129.00823,0.61643342 8.9414867,8.9414867 0 0 0 126.41334,1.0126003 L 33.254694,28.019297 a 8.3908147,8.3908147 0 0 0 0,16.242843 l 33.052204,9.599123 v 25.156598 a 12.407947,12.407947 0 0 0 0.225815,2.341346 c -0.792334,0.542749 -1.513358,1.101344 -2.23042,1.687671 l -0.511055,0.368435 -0.316934,0.237701 c -0.19016,0.158466 -0.396166,0.301086 -0.574442,0.443706 0,0 -0.09508,0.06735 -0.19016,0.146582 -0.843835,0.633867 -1.687671,1.287543 -2.547353,1.957065 -3.961669,-2.377002 -7.923338,-4.619306 -11.79785,-6.608064 a 12.554529,12.554529 0 0 0 -5.637455,-1.354891 12.427755,12.427755 0 0 0 -9.111838,3.997324 C 25.925607,90.657244 19.812752,98.683585 14.939899,106.77331 a 12.281174,12.281174 0 0 0 0.09508,12.89524 c 3.68039,5.82761 7.182506,10.95401 10.732161,15.65255 v 44.86194 a 12.281174,12.281174 0 0 0 1.311312,5.44333 12.146477,12.146477 0 0 0 -1.339044,5.71669 v 0.22581 0.93892 c 0,0.85968 0.03169,1.68767 0.03169,2.377 v 0.19412 c 0,0.90723 0,1.5609 0,1.81445 0,14.48782 6.33867,34.48633 36.427545,47.36571 16.131916,6.91311 38.261807,10.98571 62.321017,11.48884 h 8.88206 c 24.10676,-0.51105 46.23664,-4.58365 62.35271,-11.48884 30.10868,-12.87938 36.4117,-32.88185 36.4117,-47.36571 v -0.3209 c 0,-0.34862 0,-0.92307 0,-1.63617 0,-0.5269 0,-1.14888 0,-1.83425 0,-0.53879 0,-1.12908 0,-1.71936 a 12.281174,12.281174 0 0 0 -1.25585,-5.75631 12.423794,12.423794 0 0 0 1.27169,-5.45918 v -3.42288 c 0,-0.22185 0,-0.46352 0,-0.66952 V 135.2696 l 7.61037,-11.14418 a 4.8015427,4.8015427 0 0 0 -3.96167,-7.52717 h -4.90454 a 4.785696,4.785696 0 0 0 -3.96167,2.13534 c -2.377,3.53381 -4.75401,6.82992 -7.29344,10.06264 l -0.31693,0.39617 v 0.5269 l -1.02211,45.67804 v 0 0.66952 l 0.0317,16.82917 v 0.33675 c 0,0.55463 0,1.08153 0,1.54108 0,0.66953 0,1.21228 0,1.58467 v 0.47936 c 0,32.95713 -46.09005,44.85006 -89.2247,44.99268 h -0.0951 c -43.229739,-0.0951 -89.335641,-11.98801 -89.335641,-44.94514 0,-0.28524 0,-1.04984 0,-2.04026 0,-0.55463 0,-1.1885 0,-1.90952 L 38.66632,129.76684 v -0.54275 L 38.3494,128.82792 A 189.70848,189.70848 0 0 1 27.411232,113.12783 c 4.124098,-6.73484 9.266344,-13.469674 15.700094,-20.568985 5.45918,2.864287 10.890628,6.081162 16.175494,9.551585 l 1.188501,0.79233 1.085497,0.73291 0.923069,-0.90722 1.033996,-1.03796 a 76.76922,76.76922 0 0 1 7.705446,-6.398093 c 0.320895,-0.2377 0.653675,-0.495209 0.986455,-0.748756 l 0.669522,-0.511055 c 0.843836,-0.669522 1.735211,-1.319236 2.721667,-1.980834 14.365011,7.923337 42.033307,8.818678 53.434987,8.818678 h 0.17432 c 15.1415,0 29.31635,-1.430166 39.94947,-3.993366 5.37994,-1.291504 9.84078,-2.915788 13.27951,-4.825312 1.034,0.685368 1.90952,1.339044 2.72167,1.980834 0.54275,0.431822 1.08153,0.843836 1.64013,1.243964 l 0.74875,0.586327 a 4.797581,4.797581 0 0 0 6.97254,-1.240002 l 0.14262,-0.2377 2.19873,-3.311956 a 4.8213511,4.8213511 0 0 0 -1.09342,-6.469405 l -0.16243,-0.110927 -0.15847,-0.126773 -0.0475,-0.03169 -0.0317,-0.03169 -0.22186,-0.14262 -0.0634,-0.06735 -0.11093,-0.07923 c -0.39617,-0.28524 -0.79233,-0.586327 -1.1885,-0.891375 -0.74876,-0.586327 -1.51336,-1.188501 -2.377,-1.766904 a 12.372292,12.372292 0 0 0 0.22581,-2.3255 V 53.873148 l 28.80134,-8.359121 v 23.599662 a 3.8467805,3.8467805 0 0 0 -0.39617,0.507093 l -19.13882,28.920183 a 6.7665305,6.7665305 0 0 0 5.6533,10.506345 h 38.25784 a 6.7784155,6.7784155 0 0 0 5.6533,-10.522191 z M 178.28743,78.681119 c -0.47936,0.558595 -2.99502,2.931635 -12.3089,5.17394 -9.47235,2.293806 -22.89449,3.617003 -36.81183,3.63285 h -0.17432 c -13.89753,0 -27.33551,-1.323197 -36.875209,-3.601157 -9.408964,-2.258151 -11.956317,-4.662884 -12.435679,-5.22148 v -20.93742 l 46.747688,13.564755 0.11093,0.03169 a 9.8605939,9.8605939 0 0 0 2.46812,0.320895 9.6427021,9.6427021 0 0 0 2.45227,-0.320895 l 46.82693,-13.596448 z m 8.50174,-37.334768 -6.60806,1.925371 L 128.99238,58.127981 77.803661,43.271722 71.195597,41.346351 53.237352,36.136757 128.99238,14.149494 204.74742,36.136757 Z"
     id="path830"
     style="stroke-width:0.999997" /><path
     class="cls-2"
     d="M 176.52449,182.99186 139.2848,120.69462 a 12.281174,12.281174 0 0 0 -21.11569,0 l -37.239692,62.29724 a 12.281174,12.281174 0 0 0 10.557847,18.61985 h 74.479375 a 12.281174,12.281174 0 0 0 10.55785,-18.61985 z m -39.2958,4.23899 a 4.4093375,4.4093375 0 0 1 -4.42122,4.40933 h -8.14123 a 4.4093375,4.4093375 0 0 1 -4.40934,-4.40933 v -7.2459 a 4.4053758,4.4053758 0 0 1 4.40934,-4.40537 h 8.14123 a 4.4053758,4.4053758 0 0 1 4.40934,4.40537 z m 0.34863,-22.07442 a 4.4053758,4.4053758 0 0 1 -4.37368,4.02505 h -8.90187 a 4.4053758,4.4053758 0 0 1 -4.39349,-4.02505 l -2.09969,-24.24542 a 4.4093375,4.4093375 0 0 1 4.38953,-4.8055 h 13.07351 a 4.4093375,4.4093375 0 0 1 4.38953,4.78966 z"
     id="path832"
     style="stroke-width:0.999997" /></svg>
