<?xml version="1.0" encoding="UTF-8" standalone="no"?>
<!DOCTYPE svg PUBLIC "-//W3C//DTD SVG 1.1//EN" "http://www.w3.org/Graphics/SVG/1.1/DTD/svg11.dtd">
<svg width="100%" height="100%" viewBox="0 0 25 25" version="1.1" xmlns="http://www.w3.org/2000/svg" xmlns:xlink="http://www.w3.org/1999/xlink" xml:space="preserve" xmlns:serif="http://www.serif.com/" style="fill-rule:evenodd;clip-rule:evenodd;stroke-linejoin:round;stroke-miterlimit:2;">
    <g transform="matrix(0.268293,0,0,0.255556,-0.914634,-0.277778)">
        <path d="M58.4,10.7C66.4,10.7 73,17.2 73,25.3L73,66.3C73,79 62.7,89.3 50,89.3C37.3,89.3 27,79 27,66.3L27,25.3C27,17.3 33.5,10.7 41.6,10.7L58.4,10.7M58.4,5L41.6,5C30.4,5 21.3,14.1 21.3,25.3L21.3,66.3C21.3,82.1 34.1,95 50,95C65.9,95 78.7,82.1 78.7,66.3L78.7,25.3C78.7,14.1 69.6,5 58.4,5Z" style="fill:rgb(191,244,196);fill-rule:nonzero;"/>
    </g>
    <g transform="matrix(0.268293,0,0,0.255556,-0.914634,-0.277778)">
        <path d="M50,52.5C49.7,52.5 49.3,52.4 49,52.2L40.2,46C39.4,45.5 39.2,44.4 39.8,43.6C40.3,42.8 41.4,42.6 42.2,43.2L50,48.7L57.8,43.2C58.6,42.7 59.6,42.8 60.2,43.6C60.7,44.4 60.6,45.4 59.8,46L51,52.2C50.7,52.4 50.3,52.5 50,52.5Z" style="fill:rgb(191,244,196);fill-rule:nonzero;"/>
    </g>
    <g transform="matrix(0.268293,0,0,0.255556,-0.914634,-0.277778)">
        <path d="M50.1,65.8C49.8,65.8 49.4,65.7 49.1,65.5L40.3,59.3C39.5,58.8 39.3,57.7 39.9,56.9C40.4,56.1 41.5,55.9 42.3,56.5L50.1,62L57.9,56.5C58.7,56 59.7,56.1 60.3,56.9C60.8,57.7 60.7,58.7 59.9,59.3L51.1,65.5C50.8,65.7 50.5,65.8 50.1,65.8Z" style="fill:rgb(191,244,196);fill-rule:nonzero;"/>
    </g>
    <g transform="matrix(0.268293,0,0,0.255556,-0.914634,-0.277778)">
        <path d="M50,78.8C49.7,78.8 49.3,78.7 49,78.5L40.2,72.3C39.4,71.8 39.2,70.7 39.8,69.9C40.4,69.1 41.4,68.9 42.2,69.5L50,75L57.8,69.5C58.6,69 59.6,69.1 60.2,69.9C60.7,70.7 60.6,71.7 59.8,72.3L51,78.5C50.7,78.7 50.3,78.8 50,78.8Z" style="fill:rgb(191,244,196);fill-rule:nonzero;"/>
    </g>
    <g transform="matrix(0.268293,0,0,0.255556,-0.914634,-0.277778)">
        <path d="M50,36.3C48.1,36.3 46.6,34.8 46.6,32.9L46.6,25.4C46.6,23.5 48.1,22 50,22C51.9,22 53.4,23.5 53.4,25.4L53.4,32.9C53.4,34.8 51.9,36.3 50,36.3Z" style="fill:rgb(191,244,196);fill-rule:nonzero;"/>
    </g>
</svg>
