<?xml version="1.0" encoding="UTF-8" standalone="no"?>
<!-- Created with Inkscape (http://www.inkscape.org/) -->

<svg
   width="366.92862"
   height="269.58884"
   viewBox="0 0 97.083195 71.328717"
   version="1.1"
   id="svg8"
   inkscape:version="1.1.1 (3bf5ae0, 2021-09-20)"
   sodipodi:docname="x-and-y-axes.svg"
   xmlns:inkscape="http://www.inkscape.org/namespaces/inkscape"
   xmlns:sodipodi="http://sodipodi.sourceforge.net/DTD/sodipodi-0.dtd"
   xmlns="http://www.w3.org/2000/svg"
   xmlns:svg="http://www.w3.org/2000/svg"
   xmlns:rdf="http://www.w3.org/1999/02/22-rdf-syntax-ns#"
   xmlns:cc="http://creativecommons.org/ns#"
   xmlns:dc="http://purl.org/dc/elements/1.1/">
  <defs
     id="defs2">
    <clipPath
       clipPathUnits="userSpaceOnUse"
       id="clipPath874">
      <g
         inkscape:label="Clip"
         id="use876"
         style="stroke-width:1.5">
        <rect
           style="fill:#0e0421;stroke:#488bd4;stroke-width:0.396874;-inkscape-stroke:none;paint-order:stroke fill markers;stop-color:#000000"
           id="rect6423"
           width="508"
           height="285.75"
           x="0"
           y="11.249975" />
      </g>
    </clipPath>
  </defs>
  <sodipodi:namedview
     id="base"
     pagecolor="#ffffff"
     bordercolor="#666666"
     borderopacity="1.0"
     inkscape:pageopacity="0.0"
     inkscape:pageshadow="2"
     inkscape:zoom="0.80833333"
     inkscape:cx="960"
     inkscape:cy="540"
     inkscape:document-units="px"
     inkscape:current-layer="layer1"
     showgrid="false"
     units="px"
     inkscape:window-width="1920"
     inkscape:window-height="1012"
     inkscape:window-x="0"
     inkscape:window-y="32"
     inkscape:window-maximized="1"
     inkscape:pagecheckerboard="1"
     inkscape:snap-page="true"
     inkscape:snap-bbox="true"
     inkscape:bbox-paths="false"
     inkscape:bbox-nodes="true"
     inkscape:snap-bbox-edge-midpoints="true">
    <inkscape:grid
       type="xygrid"
       id="grid27"
       originy="-49.594435"
       spacingx="21.166667"
       spacingy="21.166667"
       empspacing="4"
       originx="-35.398282" />
  </sodipodi:namedview>
  <metadata
     id="metadata5">
    <rdf:RDF>
      <cc:Work
         rdf:about="">
        <dc:format>image/svg+xml</dc:format>
        <dc:type
           rdf:resource="http://purl.org/dc/dcmitype/StillImage" />
      </cc:Work>
    </rdf:RDF>
  </metadata>
  <g
     inkscape:label="Layer 1"
     inkscape:groupmode="layer"
     id="layer1"
     transform="translate(-35.398283,-60.844408)">
    <g
       id="g1051">
      <rect
         style="fill:#d41e3c;stroke:#faffff;stroke-width:1.05833;stroke-linejoin:round;stroke-opacity:0;paint-order:stroke fill markers;stop-color:#000000"
         id="rect896"
         width="53.887947"
         height="4.0798068"
         x="72.609268"
         y="72.300911" />
      <path
         id="rect964"
         style="fill:#d41e3c;stroke:#faffff;stroke-width:1.05833;stroke-linejoin:round;stroke-opacity:0;paint-order:stroke fill markers;stop-color:#000000"
         d="m 119.04396,61.611132 -2.99233,2.99233 9.91643,9.916426 -9.91607,9.916061 2.99196,2.991961 9.91607,-9.91606 2.99232,-2.992331 -2.99195,-2.991957 z" />
    </g>
    <g
       id="g1057"
       transform="rotate(90,72.929377,72.62102)"
       style="fill:#77b02a">
      <rect
         style="fill:#77b02a;stroke:#faffff;stroke-width:1.05833;stroke-linejoin:round;stroke-opacity:0;paint-order:stroke fill markers;stop-color:#000000"
         id="rect1053"
         width="53.887947"
         height="4.0798068"
         x="72.609268"
         y="72.300911" />
      <path
         id="path1055"
         style="fill:#77b02a;stroke:#faffff;stroke-width:1.05833;stroke-linejoin:round;stroke-opacity:0;paint-order:stroke fill markers;stop-color:#000000"
         d="m 119.04396,61.611132 -2.99233,2.99233 9.91643,9.916426 -9.91607,9.916061 2.99196,2.991961 9.91607,-9.91606 2.99232,-2.992331 -2.99195,-2.991957 z" />
    </g>
    <circle
       style="fill:#fff540;stroke:#faffff;stroke-width:1.05833;stroke-linejoin:round;stroke-opacity:0;paint-order:stroke fill markers;stop-color:#000000"
       id="path850"
       cx="71.25946"
       cy="74.621788"
       r="4.4277048" />
    <g
       aria-label="X axis"
       id="text1695"
       style="font-weight:900;font-size:9.2671px;line-height:1.25;font-family:Montserrat;-inkscape-font-specification:'Montserrat Heavy';letter-spacing:0px;word-spacing:0px;fill:#d41e3c;stroke-width:0.264583">
      <path
         d="m 84.067594,68.452698 -1.121319,-1.732948 -1.093518,1.732948 h -2.49285 l 2.344576,-3.271287 -2.261172,-3.215683 h 2.455782 l 1.102785,1.631009 1.074983,-1.631009 h 2.353844 l -2.251906,3.132279 2.390912,3.354691 z"
         id="path6543" />
      <path
         d="m 92.009484,63.290923 q 1.334462,0 2.038762,0.602361 0.704299,0.593095 0.704299,1.834886 v 2.724528 h -1.946091 v -0.667231 q -0.361417,0.759902 -1.4364,0.759902 -0.602362,0 -1.028648,-0.203876 -0.41702,-0.213144 -0.63943,-0.565294 -0.213144,-0.361416 -0.213144,-0.806237 0,-0.750635 0.574561,-1.139854 0.57456,-0.389218 1.742215,-0.389218 h 0.843306 q -0.101938,-0.593094 -0.954512,-0.593094 -0.342882,0 -0.695032,0.111205 -0.35215,0.101938 -0.602362,0.28728 l -0.667231,-1.380798 q 0.435554,-0.268746 1.047182,-0.417019 0.620896,-0.157541 1.232525,-0.157541 z m -0.0093,3.99412 q 0.22241,0 0.398485,-0.120472 0.176075,-0.120472 0.259479,-0.361417 v -0.35215 H 92.13919 q -0.63943,0 -0.63943,0.426287 0,0.176075 0.12974,0.296547 0.139006,0.111205 0.370684,0.111205 z"
         id="path6545" />
      <path
         d="m 98.85787,68.452698 -0.695032,-1.084251 -0.778437,1.084251 h -2.270439 l 1.91829,-2.511384 -1.862688,-2.55772 h 2.363111 l 0.722834,1.074984 0.759902,-1.074984 h 2.196299 l -1.862683,2.465049 1.909023,2.604055 z"
         id="path6547" />
      <path
         d="m 101.63799,63.383594 h 2.09436 v 5.069104 h -2.09436 z m 1.04718,-0.407753 q -0.56529,0 -0.91744,-0.296547 -0.34289,-0.305814 -0.34289,-0.769169 0,-0.463355 0.34289,-0.759902 0.35215,-0.305815 0.91744,-0.305815 0.57456,0 0.91744,0.28728 0.34289,0.287281 0.34289,0.741369 0,0.481889 -0.34289,0.79697 -0.34288,0.305814 -0.91744,0.305814 z"
         id="path6549" />
      <path
         d="m 106.64221,68.545369 q -0.6487,0 -1.27886,-0.139007 -0.63017,-0.139006 -1.01938,-0.361417 l 0.57456,-1.380798 q 0.35215,0.213144 0.83403,0.333616 0.48189,0.120472 0.93598,0.120472 0.36142,0 0.50043,-0.0556 0.14827,-0.06487 0.14827,-0.185342 0,-0.120473 -0.18534,-0.166808 -0.17608,-0.04634 -0.58383,-0.09267 -0.6209,-0.07414 -1.05645,-0.185342 -0.43555,-0.120472 -0.76917,-0.454088 -0.32435,-0.333616 -0.32435,-0.954511 0,-0.491157 0.29655,-0.880375 0.29655,-0.389218 0.88037,-0.620896 0.5931,-0.231677 1.41787,-0.231677 0.57456,0 1.12132,0.111205 0.55603,0.101938 0.94524,0.305814 l -0.57456,1.380798 q -0.66723,-0.370684 -1.4642,-0.370684 -0.68576,0 -0.68576,0.240945 0,0.120472 0.18534,0.176075 0.18534,0.04633 0.58383,0.09267 0.62089,0.07414 1.04718,0.194609 0.43555,0.120472 0.7599,0.454088 0.33362,0.333615 0.33362,0.954511 0,0.472622 -0.29655,0.861841 -0.29655,0.389218 -0.88964,0.620895 -0.5931,0.231678 -1.4364,0.231678 z"
         id="path6551" />
    </g>
    <g
       aria-label="Y axis"
       id="text3224"
       style="font-weight:900;font-size:9.2671px;line-height:1.25;font-family:Montserrat;-inkscape-font-specification:'Montserrat Heavy';letter-spacing:0px;word-spacing:0px;fill:#77b02a;stroke-width:0.264583">
      <path
         d="m 40.031833,95.705773 v 2.353843 h -2.187036 v -2.381645 l -2.446514,-4.105325 h 2.307508 l 1.325195,2.242638 1.334463,-2.242638 h 2.112899 z"
         id="path6572" />
      <path
         d="m 47.742045,92.897841 q 1.334462,0 2.038762,0.602362 0.7043,0.593094 0.7043,1.834886 v 2.724527 h -1.946092 v -0.667231 q -0.361416,0.759902 -1.4364,0.759902 -0.602362,0 -1.028648,-0.203876 -0.41702,-0.213143 -0.63943,-0.565293 -0.213143,-0.361417 -0.213143,-0.806238 0,-0.750635 0.57456,-1.139853 0.57456,-0.389219 1.742215,-0.389219 h 0.843306 q -0.101938,-0.593094 -0.954512,-0.593094 -0.342882,0 -0.695032,0.111205 -0.35215,0.101938 -0.602362,0.28728 l -0.667231,-1.380798 q 0.435554,-0.268745 1.047182,-0.417019 0.620896,-0.157541 1.232525,-0.157541 z m -0.0093,3.99412 q 0.22241,0 0.398485,-0.120472 0.176075,-0.120472 0.259479,-0.361417 v -0.35215 h -0.518958 q -0.63943,0 -0.63943,0.426287 0,0.176075 0.12974,0.296547 0.139006,0.111205 0.370684,0.111205 z"
         id="path6574" />
      <path
         d="m 54.590432,98.059616 -0.695033,-1.084251 -0.778436,1.084251 h -2.27044 l 1.91829,-2.511384 -1.862687,-2.55772 h 2.36311 l 0.722834,1.074984 0.759902,-1.074984 h 2.196303 l -1.862687,2.465049 1.909022,2.604055 z"
         id="path6576" />
      <path
         d="m 57.370549,92.990512 h 2.094365 v 5.069104 h -2.094365 z m 1.047182,-0.407752 q -0.565293,0 -0.917442,-0.296547 -0.342883,-0.305815 -0.342883,-0.76917 0,-0.463355 0.342883,-0.759902 0.352149,-0.305814 0.917442,-0.305814 0.574561,0 0.917443,0.28728 0.342883,0.28728 0.342883,0.741368 0,0.481889 -0.342883,0.79697 -0.342882,0.305815 -0.917443,0.305815 z"
         id="path6578" />
      <path
         d="m 62.374768,98.152287 q -0.648697,0 -1.27886,-0.139006 -0.630163,-0.139007 -1.019381,-0.361417 l 0.57456,-1.380798 q 0.35215,0.213143 0.834039,0.333615 0.481889,0.120473 0.935977,0.120473 0.361417,0 0.500424,-0.0556 0.148273,-0.06487 0.148273,-0.185342 0,-0.120472 -0.185342,-0.166808 -0.176075,-0.04633 -0.583827,-0.09267 -0.620896,-0.07414 -1.05645,-0.185342 -0.435553,-0.120472 -0.769169,-0.454088 -0.324348,-0.333615 -0.324348,-0.954511 0,-0.491156 0.296547,-0.880375 0.296547,-0.389218 0.880374,-0.620895 0.593095,-0.231678 1.417867,-0.231678 0.57456,0 1.121319,0.111205 0.556026,0.101939 0.945244,0.305815 l -0.57456,1.380798 q -0.667231,-0.370684 -1.464202,-0.370684 -0.685765,0 -0.685765,0.240944 0,0.120473 0.185342,0.176075 0.185342,0.04634 0.583827,0.09267 0.620896,0.07414 1.047182,0.194609 0.435554,0.120473 0.759902,0.454088 0.333616,0.333616 0.333616,0.954512 0,0.472622 -0.296547,0.86184 -0.296547,0.389218 -0.889642,0.620896 -0.593094,0.231677 -1.4364,0.231677 z"
         id="path6580" />
    </g>
  </g>
</svg>
