<?xml version="1.0" encoding="UTF-8" standalone="no"?>
<svg
   id="Layer_1"
   data-name="Layer 1"
   viewBox="0 0 206.4566 200.01631"
   version="1.1"
   sodipodi:docname="turtle.svg"
   inkscape:version="1.1.1 (3bf5ae0, 2021-09-20)"
   width="206.4566"
   height="200.01631"
   xmlns:inkscape="http://www.inkscape.org/namespaces/inkscape"
   xmlns:sodipodi="http://sodipodi.sourceforge.net/DTD/sodipodi-0.dtd"
   xmlns="http://www.w3.org/2000/svg"
   xmlns:svg="http://www.w3.org/2000/svg"
   xmlns:rdf="http://www.w3.org/1999/02/22-rdf-syntax-ns#"
   xmlns:cc="http://creativecommons.org/ns#"
   xmlns:dc="http://purl.org/dc/elements/1.1/">
  <sodipodi:namedview
     id="namedview73"
     pagecolor="#ffffff"
     bordercolor="#111111"
     borderopacity="1"
     inkscape:pageshadow="0"
     inkscape:pageopacity="0"
     inkscape:pagecheckerboard="1"
     showgrid="false"
     inkscape:current-layer="Layer_1" />
  <defs
     id="defs4">
    <style
       id="style2">.cls-1{fill:#3dff6e;}.cls-2{fill:#28c074;}.cls-3{fill:#faffff;}.cls-4{fill:#0e0f2c;}.cls-5{fill:#132243;}.cls-6{fill:#1a466b;}</style>
  </defs>
  <title
     id="title6">turtle</title>
  <path
     class="cls-1"
     d="m 8.0766065,92.617081 -1.53,1 -4.74,3.08 a 4,4 0 0 0 0,6.689999 l 4.74,3.08 1.83,1.18 a 23,23 0 0 1 -1.51,-7.999999 22.54,22.54 0 0 1 1.21,-7.03 z"
     id="path8" />
  <path
     class="cls-1"
     d="m 141.06661,36.997079 1.26,-3.84 1.32,-4.07 a 11.83,11.83 0 0 0 -4.87,-13.62 l -19.89,-12.7100005 a 17.48,17.48 0 0 0 -22.940002,3.64 11.78,11.78 0 0 0 1,16.0900005 l 0.35,0.33 c 10.270002,0.63 19.290002,7.84 28.440002,10.84 4.91,1.6 10.24,2.34 15.33,3.34 z"
     id="path10" />
  <path
     class="cls-2"
     d="m 106.16661,39.317079 -2.45,10.26 28.06,16 9.29,-28.58 c -5.09,-1 -10.42,-1.77 -15.31,-3.37 -9.15,-3 -18.17,-10.21 -28.440002,-10.84 l 5.460002,5.21 a 11.82,11.82 0 0 1 3.39,11.32 z"
     id="path12" />
  <path
     class="cls-1"
     d="m 141.11661,162.93708 1.27,3.87 1.32,4.07 a 11.86,11.86 0 0 1 -4.86,13.63 l -19.88,12.72 a 17.48,17.48 0 0 1 -23.000002,-3.62 11.85,11.85 0 0 1 -1,-13.66 11.71,11.71 0 0 1 2,-2.43 l 0.36,-0.33 c 10.260002,-0.64 19.280002,-7.86 28.430002,-10.86 4.94,-1.6 10.27,-2.33 15.36,-3.39 z"
     id="path14" />
  <path
     class="cls-2"
     d="m 106.22661,160.67708 -2.45,-10.26 28,-16 9.31,28.57 c -5.09,1 -10.42,1.79 -15.3,3.39 -9.15,3 -18.17,10.22 -28.430002,10.86 l 5.480002,-5.24 a 11.81,11.81 0 0 0 3.39,-11.32 z"
     id="path16" />
  <path
     class="cls-1"
     d="m 35.646607,42.927079 a 28.21,28.21 0 0 1 10.36,-4.78 41.13,41.13 0 0 0 -34.46,0.31 l -0.17,0.07 a 17.13,17.13 0 0 0 -9.0000005,20.93 11.6,11.6 0 0 0 13.9100005,7.54 l 6.38,-1.65 c 3.37,-8.02 6.09,-16.99 12.98,-22.42 z"
     id="path18" />
  <path
     class="cls-2"
     d="m 35.046607,68.177079 7.23,7.380002 27.95,-14.900002 -9.41,-11.29 a 41.07,41.07 0 0 0 -14.81,-11.22 28.21,28.21 0 0 0 -10.36,4.78 c -6.89,5.43 -9.61,14.4 -13,22.44 l 1.21,-0.31 a 11.57,11.57 0 0 1 11.19,3.12 z"
     id="path20" />
  <path
     class="cls-1"
     d="m 35.686607,157.12708 a 28.12,28.12 0 0 0 10.38,4.77 41.13,41.13 0 0 1 -34.47,-0.28 l -0.16,-0.07 a 17.13,17.13 0 0 1 -9.0000005,-20.92 11.59,11.59 0 0 1 13.8600005,-7.57 l 6.38,1.64 c 3.39,8.03 6.13,17 13.01,22.43 z"
     id="path22" />
  <path
     class="cls-2"
     d="m 35.076607,131.87708 7.22,-7.38 28,14.88 -9.4,11.29 a 41.2,41.2 0 0 1 -14.79,11.23 28.12,28.12 0 0 1 -10.38,-4.77 c -6.88,-5.43 -9.62,-14.4 -13,-22.43 l 1.21,0.31 a 11.58,11.58 0 0 0 11.14,-3.13 z"
     id="path24" />
  <path
     class="cls-2"
     d="M 36.086607,113.19708 V 86.867081 a 30.39,30.39 0 0 0 -24.93,3.76 l -3.0700005,2 a 22.54,22.54 0 0 0 -1.21,7.08 23,23 0 0 0 1.51,7.999999 l 2.7800005,1.8 a 30.42,30.42 0 0 0 24.92,3.69 z"
     id="path26" />
  <circle
     class="cls-2"
     cx="100.00707"
     cy="-175.61661"
     r="30.84"
     id="circle28"
     transform="rotate(90)" />
  <circle
     class="cls-3"
     cx="127.36707"
     cy="-183.64661"
     r="12.17"
     id="circle30"
     transform="rotate(90)" />
  <circle
     class="cls-3"
     cx="72.637077"
     cy="-183.64661"
     r="12.17"
     id="circle32"
     transform="rotate(90)" />
  <path
     class="cls-1"
     d="m 183.01661,73.737081 -28,-13.880002 a 29.32,29.32 0 0 0 -28.38,1.31 l -3.79,2.34 a 29.3,29.3 0 0 0 -13.94,25.000002 v 23.079999 a 29.31,29.31 0 0 0 13.94,25 l 3.79,2.34 a 29.32,29.32 0 0 0 28.38,1.3 l 28,-13.88 a 29.3,29.3 0 0 0 16.31,-26.349999 v 0 a 29.32,29.32 0 0 0 -16.31,-26.26 z"
     id="path34" />
  <path
     class="cls-4"
     d="m 95.116608,171.68708 c -10.18,0 -19,-7.28 -28.000001,-10.21 -9.63,-3.15 -21.07,-2.79 -28.51,-8.65 -7.9,-6.23 -10,-17.43 -14.45,-25.91 -4.45,-8.48 -12.56,-16.78 -12.57,-26.83 -0.01,-10.049999 8,-18.239999 12.55,-26.849999 4.55,-8.610002 6.53,-19.680002 14.43,-25.920002 7.43,-5.86 18.88,-5.51 28.5,-8.66 9.000001,-2.95 17.800001,-10.23 28.000001,-10.24 10.200002,-0.01 19.000002,7.28 28.000002,10.21 9.63,3.15 21.07,2.79 28.51,8.65 7.91,6.23 10,17.43 14.45,25.910002 4.45,8.48 12.53,16.81 12.54,26.81 0.01,9.999999 -8,18.239999 -12.55,26.849999 -4.55,8.61 -6.53,19.68 -14.42,25.92 -7.44,5.86 -18.88,5.51 -28.51,8.66 -8.96,2.97 -17.79,10.25 -27.970002,10.26 z"
     id="path36" />
  <ellipse
     class="cls-5"
     cx="100.04708"
     cy="-99.596596"
     rx="45.27"
     ry="51.830002"
     id="ellipse38"
     transform="rotate(90)" />
  <path
     class="cls-5"
     d="m 99.616608,158.51708 a 75.89,75.89 0 0 1 -20.5,-2.77 6.15,6.15 0 0 1 -4.060001,-3.64 6.36,6.36 0 0 1 0.370001,-5.59 l 5.05,-8.74 a 6.36,6.36 0 0 1 5.47,-3.17 h 27.280002 a 6.35,6.35 0 0 1 5.48,3.16 l 5,8.74 a 6.33,6.33 0 0 1 0.38,5.59 6.12,6.12 0 0 1 -4.06,3.64 75.83,75.83 0 0 1 -20.410002,2.78 z"
     id="path40" />
  <path
     class="cls-5"
     d="m 80.466608,126.86708 -13.660001,-23.64 a 6.33,6.33 0 0 1 0,-6.329999 l 13.640001,-23.65 a 6.35,6.35 0 0 1 5.48,-3.170002 h 27.300002 a 6.34,6.34 0 0 1 5.48,3.160002 l 13.66,23.65 a 6.31,6.31 0 0 1 0,6.319999 l -13.64,23.66 a 6.32,6.32 0 0 1 -5.5,3.13 H 85.916608 a 6.32,6.32 0 0 1 -5.45,-3.13 z"
     id="path42" />
  <path
     class="cls-5"
     d="m 85.916608,65.487079 a 6.34,6.34 0 0 1 -5.47,-3.15 l -5.05,-8.73 a 6.33,6.33 0 0 1 -0.380001,-5.59 6.16,6.16 0 0 1 4.060001,-3.65 76.22,76.22 0 0 1 20.49,-2.78 75.43,75.43 0 0 1 20.490002,2.77 6.16,6.16 0 0 1 4.07,3.64 6.33,6.33 0 0 1 -0.38,5.59 l -5,8.73 a 6.32,6.32 0 0 1 -5.52,3.16 z"
     id="path44" />
  <path
     class="cls-5"
     d="m 134.31661,149.16708 a 6.37,6.37 0 0 1 -5.5,-3.18 l -6.08,-10.52 a 6.36,6.36 0 0 1 0,-6.33 l 13.64,-23.65 a 6.32,6.32 0 0 1 5.47,-3.16 h 17.65 a 6.34,6.34 0 0 1 6.21,7.58 c -3,15.48 -13.31,29.47 -28.24,38.4 a 6.12,6.12 0 0 1 -3.15,0.86 z"
     id="path46" />
  <path
     class="cls-5"
     d="m 141.84661,97.737081 a 6.33,6.33 0 0 1 -5.48,-3.16 l -13.66,-23.640002 a 6.33,6.33 0 0 1 0,-6.33 l 6.07,-10.52 a 6.37,6.37 0 0 1 5.45,-3.18 6.12,6.12 0 0 1 3.15,0.87 c 14.94,8.92 25.25,22.900002 28.27,38.370002 a 6.36,6.36 0 0 1 -1.33,5.29 6.29,6.29 0 0 1 -4.87,2.3 z"
     id="path48" />
  <path
     class="cls-5"
     d="m 64.896607,149.18708 a 6.09,6.09 0 0 1 -3.16,-0.87 c -14.93,-8.92 -25.23,-22.9 -28.26,-38.36 a 6.36,6.36 0 0 1 1.34,-5.29 6.27,6.27 0 0 1 4.86,-2.3 h 17.63 a 6.33,6.33 0 0 1 5.48,3.16 l 13.670001,23.64 a 6.38,6.38 0 0 1 0,6.33 l -6.060001,10.5 a 6.38,6.38 0 0 1 -5.5,3.19 z"
     id="path50" />
  <path
     class="cls-5"
     d="m 39.676607,97.787081 a 6.29,6.29 0 0 1 -4.87,-2.3 6.38,6.38 0 0 1 -1.33,-5.29 c 3,-15.46 13.3,-29.450002 28.22,-38.380002 a 6.1,6.1 0 0 1 3.16,-0.88 6.38,6.38 0 0 1 5.5,3.18 l 6.070001,10.51 a 6.31,6.31 0 0 1 0,6.32 L 62.786607,94.607081 a 6.34,6.34 0 0 1 -5.48,3.17 z"
     id="path52" />
  <path
     class="cls-6"
     d="m 120.79661,141.33708 a 58.54,58.54 0 0 1 -42.380002,0 l 2.06,-3.58 a 6.31,6.31 0 0 1 5.48,-3.16 h 27.270002 a 6.33,6.33 0 0 1 5.47,3.16 z"
     id="path54" />
  <path
     class="cls-6"
     d="m 80.466608,126.86708 -13.660001,-23.64 a 6.33,6.33 0 0 1 0,-6.329999 l 13.640001,-23.65 a 6.35,6.35 0 0 1 5.48,-3.170002 h 27.300002 a 6.34,6.34 0 0 1 5.48,3.160002 l 13.66,23.65 a 6.31,6.31 0 0 1 0,6.319999 l -13.64,23.66 a 6.32,6.32 0 0 1 -5.5,3.13 H 85.916608 a 6.32,6.32 0 0 1 -5.45,-3.13 z"
     id="path56" />
  <path
     class="cls-6"
     d="m 120.76661,58.747079 -2.06,3.57 a 6.35,6.35 0 0 1 -5.48,3.17 H 85.906608 a 6.35,6.35 0 0 1 -5.47,-3.16 l -2.05,-3.57 a 58.37,58.37 0 0 1 42.370002,0 z"
     id="path58" />
  <path
     class="cls-6"
     d="m 151.22661,102.32708 c -0.89,15.92 -11.19,29.7 -26.15,37.12 l -2.3,-4 a 6.34,6.34 0 0 1 0,-6.32 l 13.6,-23.64 a 6.32,6.32 0 0 1 5.47,-3.16 z"
     id="path60" />
  <path
     class="cls-6"
     d="m 151.22661,97.737081 h -9.33 a 6.38,6.38 0 0 1 -5.49,-3.16 l -13.7,-23.640002 a 6.38,6.38 0 0 1 0,-6.33 l 2.3,-4 c 14.97,7.45 25.28,21.200002 26.22,37.130002 z"
     id="path62" />
  <path
     class="cls-6"
     d="m 76.446608,135.47708 -2.290001,4 c -15,-7.41 -25.26,-21.16 -26.16,-37.09 h 9.32 a 6.33,6.33 0 0 1 5.47,3.15 l 13.660001,23.64 a 6.27,6.27 0 0 1 0,6.3 z"
     id="path64" />
  <path
     class="cls-6"
     d="M 76.426608,70.997079 62.776607,94.667081 a 6.32,6.32 0 0 1 -5.46,3.16 h -9.32 c 0.88,-15.94 11.17,-29.700002 26.13,-37.140002 l 2.300001,4 a 6.31,6.31 0 0 1 0,6.31 z"
     id="path66" />
  <path
     class="cls-5"
     d="m 76.176608,132.87708 -16.720001,-28.95 a 7.75,7.75 0 0 1 0,-7.739999 L 76.176608,67.237079 a 7.73,7.73 0 0 1 6.7,-3.87 h 33.430002 a 7.73,7.73 0 0 1 6.7,3.87 l 16.72,29.000002 a 7.75,7.75 0 0 1 0,7.739999 l -16.72,28.95 a 7.75,7.75 0 0 1 -6.7,3.87 H 82.876608 a 7.75,7.75 0 0 1 -6.7,-3.92 z"
     id="path68" />
  <path
     class="cls-1"
     d="m 108.89661,125.52708 v -9.36 l 8.11,4.68 a 4.66,4.66 0 0 0 6.37,-1.71 l 4.64,-8 a 4.67,4.67 0 0 0 -1.71,-6.38 l -8.08,-4.7 8.11,-4.679999 a 4.67,4.67 0 0 0 1.71,-6.38 l -4.64,-8 a 4.66,4.66 0 0 0 -6.37,-1.7 l -8.11,4.68 v -9.37 a 4.67,4.67 0 0 0 -4.7,-4.700002 h -9.270002 a 4.67,4.67 0 0 0 -4.67,4.670002 v 9.42 l -8.11,-4.68 a 4.66,4.66 0 0 0 -6.37,1.7 l -4.640001,8 a 4.68,4.68 0 0 0 1.71,6.38 l 8.110001,4.679999 -8.110001,4.68 a 4.68,4.68 0 0 0 -1.71,6.38 l 4.640001,8 a 4.66,4.66 0 0 0 6.37,1.71 l 8.11,-4.68 v 9.36 a 4.67,4.67 0 0 0 4.67,4.67 h 9.270002 a 4.67,4.67 0 0 0 4.67,-4.67 z m -19.880002,-19.36 a 12.21,12.21 0 1 1 16.680002,4.47 12.2,12.2 0 0 1 -16.680002,-4.47 z"
     id="path70" />
  <metadata
     id="metadata978">
    <rdf:RDF>
      <cc:Work
         rdf:about="">
        <dc:title>turtle</dc:title>
      </cc:Work>
    </rdf:RDF>
  </metadata>
</svg>
