<?xml version="1.0" encoding="UTF-8" standalone="no"?>
<svg id="Layer_1" data-name="Layer 1" viewBox="0 0 512 512" version="1.1"
  xmlns="http://www.w3.org/2000/svg"
  xmlns:svg="http://www.w3.org/2000/svg"
  xmlns:rdf="http://www.w3.org/1999/02/22-rdf-syntax-ns#"
  xmlns:cc="http://creativecommons.org/ns#"
  xmlns:dc="http://purl.org/dc/elements/1.1/">
  <g fill="#3dff6e">
    <path d="m 234.33826,288.441 v 36.58163 c 0,10.00779 8.65797,18.14765 19.30659,18.14765 10.64863,0 19.3066,-8.18076 19.3066,-18.14765 V 288.441 c 0,-9.99416 -8.65797,-18.10675 -19.3066,-18.10675 -10.64862,0 -19.30659,8.11259 -19.30659,18.10675 z" id="path12" style="stroke-width:1.36346" />
    <path d="m 347.4918,262.18076 a 35.027284,35.027284 0 1 0 35.02728,35.01365 35.054553,35.054553 0 0 0 -35.02728,-35.01365 z" id="path14" style="stroke-width:1.36346" />
    <path d="m 124.74336,297.23531 a 35.027284,35.027284 0 1 0 35.04092,-35.05455 35.068188,35.068188 0 0 0 -35.04092,35.05455 z" id="path16" style="stroke-width:1.36346" />
    <path d="m 487.42368,196.93921 -36.81341,-55.6019 A 7.3763179,7.3763179 0 0 0 449.874,140.35562 V 74.555048 h -0.19089 A 16.443326,16.443326 0 0 0 437.76648,61.288583 L 258.66239,9.3134928 a 17.479556,17.479556 0 0 0 -5.03117,-0.7362683 17.138691,17.138691 0 0 0 -4.99026,0.7362683 L 69.441425,61.288583 a 16.143365,16.143365 0 0 0 0,31.2505 l 63.646305,18.474877 v 48.3892 a 24.705893,24.705893 0 0 0 0.43631,4.51305 c -1.49981,1.03623 -2.90417,2.11336 -4.2949,3.24503 l -0.96806,0.69537 -0.61355,0.46357 c -0.36814,0.3136 -0.77718,0.58629 -1.10441,0.85898 a 3.6540725,3.6540725 0 0 0 -0.36813,0.27269 c -1.62252,1.22712 -3.24503,2.4815 -4.90846,3.77679 -7.59447,-4.59486 -15.25711,-8.88976 -22.687968,-12.72108 a 23.806009,23.806009 0 0 0 -28.34633,5.0857 299.96117,299.96117 0 0 0 -35.927168,47.20298 23.642394,23.642394 0 0 0 0.190884,24.81497 c 7.076357,11.20764 13.811849,21.07909 20.642783,30.11883 v 86.32065 a 23.642394,23.642394 0 0 0 2.481497,10.47137 23.396971,23.396971 0 0 0 -2.576939,10.98949 v 0.4363 1.79977 c 0,1.66342 0,3.25867 0,4.56759 v 0.36813 c 0,1.74523 0,2.99962 0,3.49046 0,27.88276 12.162062,66.34596 70.081841,91.13366 31.03234,13.29373 73.62683,21.13363 119.88902,22.11532 h 17.09779 c 46.35764,-0.98169 88.95212,-8.82159 119.98447,-22.11532 57.93341,-24.7877 70.04093,-63.2509 70.04093,-91.13366 v -0.61356 c 0,-0.66809 0,-1.77249 0,-3.14959 0,-1.00896 0,-2.2088 0,-3.51772 0,-1.04987 0,-2.18154 0,-3.31321 a 23.669663,23.669663 0 0 0 -2.54967,-11.03039 23.819644,23.819644 0 0 0 2.45423,-10.49864 v -6.59915 c 0,-0.42267 0,-0.88625 0,-1.28165 V 267.6346 l 14.64356,-21.44722 a 9.2306233,9.2306233 0 0 0 -7.62174,-14.45268 h -9.47605 a 9.2033541,9.2033541 0 0 0 -7.64901,4.09038 c -4.56759,6.8173 -9.16245,13.14375 -14.03,19.36113 l -0.61356,0.79081 v 1.00896 l -1.96338,87.88862 v 0 1.28165 5.05844 l -60.64669,5.87651 a 13.634599,13.634599 0 0 0 -12.27114,12.5711 l -1.64979,23.49242 -45.85315,3.2723 -3.06779,-20.88821 a 13.634599,13.634599 0 0 0 -13.47098,-11.64394 h -69.53646 a 13.743676,13.743676 0 0 0 -13.47098,11.61668 l -3.04052,20.91547 -45.88042,-3.2723 -1.64979,-23.49242 a 13.634599,13.634599 0 0 0 -12.27114,-12.5711 l -60.687595,-5.87651 -1.922478,-94.18781 v -1.03623 l -0.613557,-0.7908 A 364.78005,364.78005 0 0 1 58.261054,224.98558 267.49719,267.49719 0 0 1 88.46169,185.44524 c 10.498641,5.45384 20.95638,11.69848 31.11415,18.37944 l 2.27698,1.52707 2.07246,1.36346 1.78613,-1.74523 1.99066,-1.99065 a 148.50805,148.50805 0 0 1 14.8208,-12.27114 l 1.89521,-1.43163 1.29529,-0.98169 c 1.62252,-1.29529 3.34048,-2.54967 5.23569,-3.83132 27.62369,15.28438 80.8668,16.97507 102.80487,16.97507 h 0.32723 c 29.13714,0 56.43361,-2.72692 76.85823,-7.68991 a 102.53218,102.53218 0 0 0 25.46943,-9.28516 c 1.99066,1.36346 3.68135,2.57694 5.23569,3.79042 1.03623,0.83171 2.08609,1.63615 3.14959,2.39969 l 1.44527,1.13167 a 9.2578925,9.2578925 0 0 0 13.41645,-2.38606 l 0.27269,-0.46357 4.22672,-6.36736 a 9.2715271,9.2715271 0 0 0 -2.04519,-12.40749 l -0.31359,-0.21815 -0.29996,-0.24542 h -0.0954 v -0.0682 l -0.4363,-0.27269 -0.12271,-0.12271 -0.20452,-0.14998 c -0.80444,-0.55902 -1.54071,-1.14531 -2.27698,-1.71796 -1.43163,-1.13167 -2.90417,-2.26334 -4.52669,-3.40865 a 24.542278,24.542278 0 0 0 0.42267,-4.47215 v -48.471 L 429.66757,94.925118 V 140.3556 a 7.3763179,7.3763179 0 0 0 -0.73626,0.98169 l -36.81342,55.62917 a 13.034676,13.034676 0 0 0 10.90768,20.22011 h 73.62683 a 13.048311,13.048311 0 0 0 10.90768,-20.24738 z m -358.98535,186.18044 1.66342,23.73784 a 13.634599,13.634599 0 0 0 12.61201,12.612 l 70.24545,5.03117 a 8.9579314,8.9579314 0 0 0 0.98169,0 13.634599,13.634599 0 0 0 13.44372,-11.63031 l 3.21776,-21.81536 h 46.07131 l 3.24504,21.81536 a 13.634599,13.634599 0 0 0 13.41644,11.63031 c 0.3954,0 0.73627,0 1.03623,0 l 70.21818,-5.03117 a 13.634599,13.634599 0 0 0 12.58474,-12.58473 l 1.64978,-23.76511 46.63033,-4.54032 v 0.64083 c 0,1.07713 0,2.08609 0,2.97234 0,1.36346 0,2.33152 0,3.06778 v 0.91352 c 0,63.41452 -88.62489,86.29338 -171.6596,86.56607 h -0.17725 C 170.63742,472.46718 81.917083,449.56105 81.917083,386.1738 c 0,-0.54538 0,-2.01792 0,-3.91313 0,-1.07713 0,-2.33151 0,-3.68134 z M 348.51439,158.76233 c -0.91352,1.07713 -5.7538,5.64472 -23.6833,9.95326 -18.21582,4.41761 -44.03975,6.95364 -70.8181,6.99455 h -0.34087 c -26.73745,0 -52.58864,-2.54967 -70.89991,-6.92638 -18.09311,-4.34944 -23.00157,-8.97157 -23.91509,-10.0487 v -40.2766 l 89.90655,26.09662 h 0.20452 a 19.442938,19.442938 0 0 0 4.74484,0.61355 18.897554,18.897554 0 0 0 4.71757,-0.61355 l 90.08379,-26.09662 z M 364.87591,86.935263 352.15483,90.643874 253.67212,119.27653 155.20305,90.643874 142.48197,86.935263 107.9319,76.913833 253.67212,34.646577 399.42598,76.913833 Z" id="path18" style="stroke-width:1.36346" />
  </g>
</svg>
