<?xml version="1.0" encoding="UTF-8" standalone="no"?>
<!-- Generator: Adobe Illustrator 17.0.0, SVG Export Plug-In . SVG Version: 6.00 Build 0)  -->

<svg
   version="1.1"
   id="Layer_1"
   x="0px"
   y="0px"
   width="541.94318"
   height="175.59523"
   viewBox="0 0 541.94317 175.59523"
   enable-background="new 0 0 547 179"
   xml:space="preserve"
   sodipodi:docname="godot-4-compatibility-label.svg"
   inkscape:version="1.3 (0e150ed, 2023-07-21)"
   xmlns:inkscape="http://www.inkscape.org/namespaces/inkscape"
   xmlns:sodipodi="http://sodipodi.sourceforge.net/DTD/sodipodi-0.dtd"
   xmlns="http://www.w3.org/2000/svg"
   xmlns:svg="http://www.w3.org/2000/svg"><defs
   id="defs6" /><sodipodi:namedview
   id="namedview6"
   pagecolor="#ffffff"
   bordercolor="#111111"
   borderopacity="1"
   inkscape:showpageshadow="0"
   inkscape:pageopacity="0"
   inkscape:pagecheckerboard="1"
   inkscape:deskcolor="#d1d1d1"
   inkscape:current-layer="g6" />&#10;<g
   id="g6"
   transform="translate(12.587104,13.298114)">&#10;	<path
   fill="#928fb8"
   stroke="#febe40"
   stroke-width="6"
   d="m 70.952,3 h 374.865 c 37.529,0 67.952,30.423 67.952,67.952 v 7.095 c 0,37.529 -30.423,67.952 -67.952,67.952 H 70.952 C 33.423,146 3,115.577 3,78.048 V 70.953 C 3,33.423 33.423,3 70.952,3 Z"
   id="path1"
   style="stroke-width:8;stroke-dasharray:none" />&#10;	<g
   id="g3"
   transform="translate(-4)">&#10;		<path
   id="path493"
   style="fill:#ffffff"
   d="m 228.35938,43.753906 v 0.002 c -4.655,0 -9.16913,0.742176 -13.45313,2.326172 -0.014,0.005 -0.029,0.0096 -0.043,0.01563 -3.88611,1.457295 -7.41292,3.53873 -10.49219,6.265625 -2.60832,-2.315933 -5.58093,-4.172705 -8.85742,-5.576172 -4.86798,-2.102996 -10.15222,-3.03125 -15.6582,-3.03125 -4.71,0 -9.27013,0.732176 -13.57813,2.326172 v 0.002 c -4.18403,1.520645 -7.96461,3.764881 -11.21875,6.773438 -3.26698,3.019994 -5.80231,6.61618 -7.57031,10.701172 -1.82074,4.206399 -2.65601,8.697871 -2.65625,13.326172 2.4e-4,4.6273 0.83551,9.115866 2.65625,13.322265 l 13.56445,-5.871093 -13.56445,5.873046 c 1.75,4.042992 4.2345,7.617771 7.4375,10.634767 0.023,0.022 0.0454,0.0435 0.0684,0.0644 3.221,2.978 6.94633,5.23866 11.07031,6.80664 0.052,0.02 0.10521,0.0396 0.15821,0.0586 4.23598,1.529 8.70542,2.23828 13.3164,2.23828 4.248,0 8.50802,-0.63617 12.75,-1.82617 v 0.002 c 4.371,-1.226 8.43558,-3.03605 12.10156,-5.49805 v -0.002 c 0.0201,-0.0135 0.0386,-0.0293 0.0586,-0.043 0.0612,-0.0418 0.12125,-0.0857 0.18164,-0.12891 0.0823,-0.0589 0.16586,-0.11654 0.24609,-0.17773 0.0585,-0.0446 0.11617,-0.0907 0.17383,-0.13672 0.0344,-0.0275 0.0695,-0.0541 0.10352,-0.082 2.89562,2.37415 6.15565,4.21654 9.70898,5.54883 0.014,0.005 0.029,0.0106 0.043,0.0156 4.284,1.584 8.79813,2.32813 13.45313,2.32813 4.68098,0 9.21509,-0.7358 13.49609,-2.3418 v -0.002 c 2.845,-1.06671 5.50247,-2.45998 7.93555,-4.19141 1.64253,3.27487 5.02805,5.52344 8.9414,5.52344 h 21.80078 c 6.129,0 11.97216,-1.10238 17.28516,-3.60938 0.028,-0.013 0.056,-0.028 0.084,-0.041 3.56091,-1.72061 6.70843,-3.98057 9.35352,-6.779299 0.67302,0.763335 1.38252,1.499329 2.13086,2.205079 0.024,0.023 0.0483,0.0473 0.0723,0.0703 3.245,3 7.00979,5.26027 11.17579,6.82227 0.015,0.005 0.029,0.0106 0.043,0.0156 4.283,1.584 8.79713,2.32813 13.45313,2.32813 4.68098,0 9.21611,-0.7358 13.49609,-2.3418 v -0.002 c 4.166,-1.562 7.9308,-3.82227 11.17578,-6.82227 0.024,-0.023 0.0502,-0.0473 0.0742,-0.0703 1.75021,-1.650971 3.29043,-3.464479 4.61524,-5.427735 V 99 c 0,5.52298 4.478,10 10,10 h 14.91406 c 5.52198,0 10,-4.47702 10,-10 V 76.330078 h 2.95313 c 5.52298,0 9.99999,-4.47701 10,-10 V 54.765625 c 0,-5.522988 -4.47702,-10 -10,-10 h -40.82227 c -3.15152,0 -5.96008,1.458328 -7.79297,3.736328 -1.6251,-0.934191 -3.33257,-1.735066 -5.11719,-2.404297 -4.27998,-1.604996 -8.81511,-2.34375 -13.49609,-2.34375 v 0.002 c -4.656,0 -9.17013,0.742176 -13.45313,2.326172 -0.014,0.005 -0.027,0.0096 -0.041,0.01563 -4.17672,1.566267 -7.94198,3.851768 -11.17774,6.886719 -0.0227,0.02097 -0.0438,0.04342 -0.0664,0.06445 -0.002,0.0016 -0.004,0.0023 -0.006,0.0039 -0.74379,0.691763 -1.45043,1.413925 -2.11914,2.164063 -2.64579,-2.793807 -5.797,-5.040696 -9.36524,-6.736328 v -0.002 C 292.56837,45.901524 286.6942,44.765625 280.5332,44.765625 h -21.80078 c -3.92189,0 -7.31464,2.258424 -8.95312,5.544922 -2.42608,-1.744182 -5.07841,-3.145859 -7.92383,-4.212891 -4.281,-1.604996 -8.81511,-2.34375 -13.49609,-2.34375 z m 212.43945,1.011719 c -3.286,0 -6.36152,1.613412 -8.22852,4.316406 l -18.76758,27.173828 c -1.15398,1.669998 -1.77343,3.651645 -1.77343,5.681641 v 9.480469 c 0,5.522988 4.477,10.000001 10,10.000001 h 13.23437 c 1.08139,4.35481 5.01662,7.58203 9.70508,7.58203 h 14.4707 c 4.98393,0 9.1139,-3.64584 9.87305,-8.41602 3.53341,-1.542387 6.00391,-5.064119 6.00391,-9.166011 V 79.853516 c 0,-4.172565 -2.55636,-7.74704 -6.1875,-9.246094 -0.86985,-3.403725 -3.4882,-6.106254 -6.83985,-7.101563 l 2.12891,-3.201171 c 2.041,-3.068994 2.22733,-7.012725 0.48633,-10.261719 -1.741,-3.248994 -5.12846,-5.277344 -8.81446,-5.277344 z" />&#10;		<path
   fill="#303049"
   d="m 179.54,100.011 c -3.58,0 -6.887,-0.548 -9.921,-1.643 -2.991,-1.138 -5.603,-2.738 -7.835,-4.803 -2.191,-2.064 -3.897,-4.508 -5.119,-7.33 -1.222,-2.822 -1.832,-5.94 -1.832,-9.352 0,-3.412 0.61,-6.53 1.832,-9.352 1.222,-2.823 2.949,-5.266 5.182,-7.33 2.233,-2.064 4.866,-3.644 7.899,-4.739 3.075,-1.138 6.445,-1.706 10.11,-1.706 4.382,0 8.278,0.737 11.691,2.212 3.454,1.475 6.298,3.581 8.531,6.319 l -9.542,8.404 c -1.39,-1.601 -2.907,-2.801 -4.55,-3.602 -1.601,-0.843 -3.391,-1.264 -5.371,-1.264 -1.643,0 -3.139,0.253 -4.487,0.758 -1.306,0.506 -2.422,1.243 -3.349,2.212 -0.927,0.969 -1.643,2.127 -2.149,3.475 -0.505,1.348 -0.758,2.886 -0.758,4.613 0,1.643 0.253,3.16 0.758,4.55 0.506,1.348 1.222,2.507 2.149,3.476 0.927,0.969 2.022,1.727 3.286,2.275 1.306,0.506 2.759,0.758 4.36,0.758 1.685,0 3.328,-0.274 4.929,-0.821 1.601,-0.59 3.307,-1.58 5.119,-2.97 l 8.341,10.237 c -2.696,1.812 -5.772,3.202 -9.226,4.171 -3.455,0.968 -6.804,1.452 -10.048,1.452 z m 6.32,-7.52 V 75.682 h 12.954 v 18.705 z m 42.499,7.52 c -3.581,0 -6.909,-0.569 -9.984,-1.706 -3.033,-1.138 -5.666,-2.738 -7.899,-4.803 -2.233,-2.106 -3.981,-4.571 -5.245,-7.393 -1.221,-2.823 -1.832,-5.898 -1.832,-9.226 0,-3.37 0.611,-6.446 1.832,-9.226 1.264,-2.822 3.012,-5.266 5.245,-7.33 2.233,-2.106 4.866,-3.728 7.899,-4.866 3.075,-1.138 6.403,-1.706 9.984,-1.706 3.623,0 6.951,0.569 9.985,1.706 3.033,1.137 5.666,2.759 7.898,4.866 2.233,2.064 3.96,4.508 5.182,7.33 1.264,2.78 1.896,5.856 1.896,9.226 0,3.328 -0.632,6.403 -1.896,9.226 -1.222,2.823 -2.949,5.287 -5.182,7.393 -2.232,2.064 -4.865,3.665 -7.898,4.803 -3.034,1.137 -6.362,1.706 -9.985,1.706 z m 0,-12.07 c 1.391,0 2.675,-0.253 3.855,-0.758 1.222,-0.506 2.275,-1.222 3.16,-2.148 0.926,-0.969 1.643,-2.127 2.148,-3.476 0.506,-1.39 0.758,-2.949 0.758,-4.676 0,-1.727 -0.252,-3.265 -0.758,-4.613 -0.505,-1.39 -1.222,-2.549 -2.148,-3.475 -0.885,-0.969 -1.938,-1.706 -3.16,-2.212 -1.18,-0.506 -2.464,-0.758 -3.855,-0.758 -1.39,0 -2.696,0.253 -3.918,0.758 -1.179,0.506 -2.232,1.243 -3.159,2.212 -0.885,0.927 -1.58,2.085 -2.085,3.475 -0.506,1.348 -0.759,2.886 -0.759,4.613 0,1.727 0.253,3.286 0.759,4.676 0.505,1.348 1.2,2.507 2.085,3.476 0.927,0.927 1.98,1.643 3.159,2.148 1.222,0.506 2.528,0.758 3.918,0.758 z M 258.733,99 V 54.766 h 21.801 c 4.929,0 9.268,0.906 13.017,2.717 3.75,1.769 6.677,4.297 8.784,7.583 2.106,3.286 3.159,7.204 3.159,11.754 0,4.592 -1.053,8.552 -3.159,11.88 -2.107,3.286 -5.034,5.835 -8.784,7.646 C 289.802,98.115 285.463,99 280.534,99 Z m 14.913,-11.627 h 6.256 c 2.106,0 3.939,-0.4 5.497,-1.201 1.601,-0.8 2.844,-1.98 3.729,-3.539 0.884,-1.601 1.327,-3.539 1.327,-5.814 0,-2.233 -0.443,-4.129 -1.327,-5.687 -0.885,-1.559 -2.128,-2.738 -3.729,-3.539 -1.558,-0.8 -3.391,-1.201 -5.497,-1.201 h -6.256 z m 60.485,12.638 c -3.581,0 -6.909,-0.569 -9.984,-1.706 -3.033,-1.138 -5.666,-2.738 -7.899,-4.803 -2.233,-2.106 -3.981,-4.571 -5.245,-7.393 -1.222,-2.823 -1.833,-5.898 -1.833,-9.226 0,-3.37 0.611,-6.446 1.833,-9.226 1.264,-2.822 3.012,-5.266 5.245,-7.33 2.233,-2.106 4.866,-3.728 7.899,-4.866 3.075,-1.138 6.403,-1.706 9.984,-1.706 3.623,0 6.951,0.569 9.984,1.706 3.033,1.137 5.666,2.759 7.899,4.866 2.233,2.064 3.96,4.508 5.182,7.33 1.264,2.78 1.896,5.856 1.896,9.226 0,3.328 -0.632,6.403 -1.896,9.226 -1.222,2.823 -2.949,5.287 -5.182,7.393 -2.233,2.064 -4.866,3.665 -7.899,4.803 -3.033,1.137 -6.361,1.706 -9.984,1.706 z m 0,-12.07 c 1.39,0 2.675,-0.253 3.855,-0.758 1.221,-0.506 2.275,-1.222 3.159,-2.148 0.927,-0.969 1.643,-2.127 2.149,-3.476 0.505,-1.39 0.758,-2.949 0.758,-4.676 0,-1.727 -0.253,-3.265 -0.758,-4.613 -0.506,-1.39 -1.222,-2.549 -2.149,-3.475 -0.884,-0.969 -1.938,-1.706 -3.159,-2.212 -1.18,-0.506 -2.465,-0.758 -3.855,-0.758 -1.39,0 -2.696,0.253 -3.918,0.758 -1.179,0.506 -2.233,1.243 -3.159,2.212 -0.885,0.927 -1.58,2.085 -2.086,3.475 -0.505,1.348 -0.758,2.886 -0.758,4.613 0,1.727 0.253,3.286 0.758,4.676 0.506,1.348 1.201,2.507 2.086,3.476 0.926,0.927 1.98,1.643 3.159,2.148 1.222,0.506 2.528,0.758 3.918,0.758 z M 373.492,99 V 66.33 H 360.538 V 54.766 H 401.36 V 66.33 H 388.406 V 99 Z m 48.538,-7.583 v -9.479 l 18.768,-27.172 h 15.292 l -18.073,27.172 -6.951,-2.085 h 34.25 V 91.417 Z M 444.968,99 v -7.583 l 0.443,-11.564 v -6.761 h 14.028 V 99 Z"
   id="path3" />&#10;	</g>&#10;	<g
   id="g5"
   transform="translate(3)">&#10;		<path
   fill="#3dff6e"
   d="M 63.978,106.723 35.702,78.395 c -1.699,-1.702 -1.699,-4.462 0,-6.164 l 6.152,-6.163 c 1.699,-1.702 4.453,-1.702 6.152,0 l 19.047,19.083 40.798,-40.875 c 1.699,-1.702 4.453,-1.702 6.152,0 l 6.151,6.164 c 1.699,1.702 1.699,4.461 0,6.164 l -50.025,50.12 c -1.699,1.702 -4.453,1.702 -6.151,-0.001 z"
   id="path4" />&#10;		<path
   fill="none"
   stroke="#303049"
   stroke-width="5"
   stroke-linejoin="round"
   d="m 33.933,70.465 v 0 c -2.673,2.678 -2.673,7.018 0,9.696 l 28.275,28.328 v 0 c 2.675,2.681 7.015,2.681 9.691,10e-4 v 0 l 50.025,-50.12 v 0 c 2.673,-2.678 2.673,-7.018 0,-9.696 l -6.152,-6.164 v 0 c -2.675,-2.681 -7.015,-2.681 -9.691,0 L 67.053,81.612 49.776,64.302 c 0,0 0,0 0,0 -2.675,-2.681 -7.015,-2.681 -9.691,0 0,0 0,0 0,0 z"
   id="path5" />&#10;	</g>&#10;</g>&#10;</svg>
