<?xml version="1.0" encoding="UTF-8" standalone="no"?><!DOCTYPE svg PUBLIC "-//W3C//DTD SVG 1.1//EN" "http://www.w3.org/Graphics/SVG/1.1/DTD/svg11.dtd"><svg width="100%" height="100%" viewBox="0 0 256 256" version="1.1" xmlns="http://www.w3.org/2000/svg" xmlns:xlink="http://www.w3.org/1999/xlink" xml:space="preserve" xmlns:serif="http://www.serif.com/" style="fill-rule:evenodd;clip-rule:evenodd;stroke-linejoin:round;stroke-miterlimit:2;"><path d="M118.762,145.963l0,19.079c0,5.219 4.516,9.465 10.07,9.465c5.553,-0 10.069,-4.267 10.069,-9.465l-0,-19.079c-0,-5.213 -4.516,-9.444 -10.069,-9.444c-5.554,0 -10.07,4.231 -10.07,9.444Z" style="fill:#fff;fill-rule:nonzero;"/><path d="M177.777,132.267c-10.021,-0 -18.268,8.246 -18.268,18.268c-0,10.022 8.247,18.269 18.268,18.269c10.022,-0 18.269,-8.247 18.269,-18.269c-0,-0.002 -0,-0.005 -0,-0.007c-0.012,-10.016 -8.253,-18.254 -18.269,-18.261Z" style="fill:#fff;fill-rule:nonzero;"/><path d="M61.603,150.549c0.008,10.017 8.252,18.255 18.269,18.255c10.021,-0 18.268,-8.247 18.268,-18.269c-0,-10.019 -8.242,-18.264 -18.261,-18.268c-10.026,0.007 -18.272,8.257 -18.276,18.282Z" style="fill:#fff;fill-rule:nonzero;"/><path d="M250.759,98.24l-19.2,-28.999c-0.114,-0.181 -0.242,-0.352 -0.384,-0.512l-0,-34.318l-0.1,-0c-0.532,-3.321 -2.97,-6.036 -6.215,-6.919l-93.412,-27.108c-0.851,-0.255 -1.735,-0.385 -2.624,-0.384c-0.881,-0.001 -1.758,0.128 -2.602,0.384l-93.462,27.108c-3.7,0.96 -6.303,4.326 -6.303,8.149c-0,3.823 2.603,7.189 6.303,8.149l33.195,9.636l0,25.237c0.004,0.79 0.08,1.578 0.228,2.354c-0.783,0.54 -1.515,1.102 -2.24,1.692l-0.505,0.363l-0.32,0.242c-0.192,0.163 -0.406,0.306 -0.576,0.448c-0.067,0.043 -0.131,0.091 -0.192,0.142c-0.846,0.64 -1.693,1.294 -2.56,1.97c-3.961,-2.397 -7.958,-4.637 -11.833,-6.635c-4.95,-2.527 -11.022,-1.438 -14.784,2.653c-7.044,7.567 -13.321,15.813 -18.738,24.618c-2.412,3.98 -2.373,9 0.1,12.942c3.69,5.846 7.203,10.994 10.766,15.709l-0,45.02c0.006,1.896 0.449,3.765 1.294,5.462c-0.909,1.772 -1.37,3.74 -1.344,5.731l0,5.561c0,14.542 6.343,34.603 36.551,47.531c16.185,6.933 38.4,11.022 62.528,11.534l8.918,-0c24.177,-0.512 46.392,-4.601 62.577,-11.534c30.215,-12.928 36.53,-32.989 36.53,-47.531l0,-5.525c0.029,-1.997 -0.428,-3.971 -1.33,-5.753c0.84,-1.703 1.278,-3.577 1.28,-5.476l0,-45.07l7.638,-11.186c0.55,-0.801 0.844,-1.751 0.844,-2.723c0,-2.641 -2.173,-4.814 -4.814,-4.814c-0.002,-0 -0.004,-0 -0.005,-0l-4.943,-0c-1.601,0 -3.1,0.802 -3.989,2.133c-2.382,3.555 -4.779,6.855 -7.317,10.098l-0.32,0.412l-0,0.526l-1.024,45.839l-0,3.306l-31.631,3.065c-3.43,0.336 -6.147,3.119 -6.4,6.557l-0.86,12.252l-23.915,1.707l-1.6,-10.895c-0.512,-3.469 -3.518,-6.068 -7.025,-6.072l-36.267,-0c-3.495,0.027 -6.485,2.606 -7.026,6.058l-1.586,10.909l-23.929,-1.707l-0.86,-12.252c-0.253,-3.438 -2.97,-6.221 -6.4,-6.557l-31.652,-3.065l-1.002,-49.123l-0,-0.541l-0.32,-0.412c-3.921,-5.065 -7.583,-10.324 -10.973,-15.758c4.599,-7.349 9.872,-14.253 15.751,-20.623c5.476,2.845 10.93,6.102 16.228,9.586l1.188,0.797l1.08,0.711l0.932,-0.911l1.038,-1.038c2.436,-2.298 5.018,-4.436 7.73,-6.4l0.988,-0.746l0.676,-0.512c0.846,-0.676 1.742,-1.33 2.731,-1.999c14.407,7.972 42.176,8.854 53.617,8.854l0.171,-0c15.197,-0 29.433,-1.423 40.085,-4.011c4.623,-1.019 9.09,-2.648 13.284,-4.843c1.038,0.711 1.92,1.344 2.731,1.977c0.54,0.434 1.088,0.854 1.642,1.252l0.754,0.59c0.841,0.641 1.869,0.988 2.926,0.988c1.648,-0 3.186,-0.843 4.071,-2.232l0.143,-0.242l2.204,-3.321c1.378,-2.094 0.91,-4.93 -1.067,-6.471l-0.163,-0.114l-0.157,-0.128l-0.049,0l-0,-0.036l-0.228,-0.142l-0.064,-0.064l-0.107,-0.078c-0.419,-0.292 -0.803,-0.597 -1.187,-0.896c-0.747,-0.59 -1.515,-1.18 -2.361,-1.778c0.145,-0.769 0.218,-1.55 0.22,-2.332l0,-25.28l28.9,-8.391l-0,23.694c-0.142,0.16 -0.27,0.331 -0.384,0.512l-19.2,29.013c-0.735,1.112 -1.126,2.415 -1.126,3.748c-0,3.729 3.069,6.798 6.798,6.798c0.006,0 0.011,0 0.017,0l38.4,0c0.004,0 0.009,0 0.013,0c3.733,0 6.805,-3.072 6.805,-6.805c0,-1.335 -0.393,-2.641 -1.129,-3.755l-0.071,0Zm-187.229,97.102l0.868,12.381c0.254,3.505 3.072,6.323 6.578,6.577l36.636,2.624c0.17,0.01 0.341,0.01 0.512,0c3.5,-0.011 6.497,-2.604 7.012,-6.065l1.678,-11.378l24.028,-0l1.693,11.378c0.513,3.456 3.503,6.047 6.997,6.065l0.54,0l36.623,-2.624c3.495,-0.26 6.303,-3.068 6.563,-6.563l0.861,-12.395l24.32,-2.368l-0,3.961c-0,33.074 -46.223,45.006 -89.529,45.149l-0.093,-0c-43.278,-0.143 -89.55,-12.089 -89.55,-45.149l0,-3.961l24.263,2.368Zm114.781,-117.013c-0.477,0.562 -3.001,2.944 -12.352,5.191c-9.501,2.304 -22.969,3.627 -36.935,3.648l-0.178,0c-13.945,0 -27.428,-1.33 -36.978,-3.612c-9.436,-2.269 -11.996,-4.68 -12.473,-5.241l0,-21.007l46.891,13.611l0.106,0c0.809,0.208 1.64,0.316 2.475,0.32c0.83,-0.002 1.657,-0.11 2.461,-0.32l46.983,-13.611l-0,21.021Zm8.533,-37.461l-6.635,1.934l-51.363,14.933l-51.357,-14.933l-6.634,-1.934l-18.02,-5.227l76.011,-22.045l76.018,22.045l-18.02,5.227Z" style="fill:#fff;fill-rule:nonzero;"/></svg>