<svg width="300" height="319" viewBox="0 0 300 319" fill="none" xmlns="http://www.w3.org/2000/svg">
<path d="M242.442 1.82254C253.509 1.14642 264.756 0.512015 275.864 0.88745C278.071 0.954859 280.419 1.17142 282.724 1.56781C283.23 1.61946 283.734 1.7073 284.2 1.8664C289.346 2.96521 294.167 5.21309 297.108 9.7215C301.742 16.8893 299.139 26.2265 297.241 33.8106C294.598 44.4504 291.667 55.0452 288.522 65.5248C282.031 87.1298 274.5 108.413 265.895 129.266C263.665 134.666 257.839 142.819 250.988 141.813C244.137 140.807 245.03 131.743 246.909 127.128C253.873 110.21 260.192 93.0545 265.757 75.6587C268.323 67.5518 270.71 59.367 272.917 51.1405C273.857 47.6198 274.799 44.063 275.667 40.5402C276.246 38.1675 276.826 35.7948 277.405 33.4221C278.735 31.3983 278.333 30.3357 276.235 30.2354C275.953 29.9733 275.671 29.7473 275.315 29.5192C176.673 109.663 89.9819 204.044 18.9981 309.48C16.0771 313.809 9.54672 321.288 3.57274 317.665C-2.08221 314.269 0.79187 304.36 3.5999 300.172C71.7001 199.031 153.163 107.424 245.904 28.4036C239.56 28.6083 233.177 28.8842 226.86 29.3794C208.345 30.806 189.939 33.431 171.723 36.9311C156.713 39.8048 166.212 12.207 177.287 10.0824C198.855 5.92412 220.561 3.18252 242.442 1.82254Z" fill="black"/>
</svg>
