<?xml version="1.0" encoding="UTF-8" standalone="no"?>
<!-- Created with Inkscape (http://www.inkscape.org/) -->

<svg
   width="47.320442"
   height="50.680023"
   viewBox="0 0 12.5202 13.40909"
   version="1.1"
   id="svg8"
   xmlns="http://www.w3.org/2000/svg"
   xmlns:svg="http://www.w3.org/2000/svg"
   xmlns:rdf="http://www.w3.org/1999/02/22-rdf-syntax-ns#"
   xmlns:cc="http://creativecommons.org/ns#"
   xmlns:dc="http://purl.org/dc/elements/1.1/">
  <defs
     id="defs2">
    <clipPath
       clipPathUnits="userSpaceOnUse"
       id="clipPath874">
      <g
         id="use876"
         style="stroke-width:1.5">
        <rect
           style="fill:#0e0421;stroke:#488bd4;stroke-width:0.396874;-inkscape-stroke:none;paint-order:stroke fill markers;stop-color:#000000"
           id="rect882"
           width="508"
           height="285.75"
           x="0"
           y="11.249975" />
      </g>
    </clipPath>
    <style
       id="style828">.cls-1{fill:url(#linear-gradient);}.cls-2{fill:#fff;}</style>
    <linearGradient
       id="linear-gradient"
       x1="9.3599997"
       y1="3.6400001"
       x2="56.720001"
       y2="62.98"
       gradientUnits="userSpaceOnUse"
       gradientTransform="matrix(0.26458334,0,0,0.26458334,241.93282,83.958568)">
      <stop
         offset="0"
         stop-color="#5ddfed"
         id="stop830" />
      <stop
         offset="1"
         stop-color="#4da6ff"
         id="stop832" />
    </linearGradient>
  </defs>
  <metadata
     id="metadata5">
    <rdf:RDF>
      <cc:Work
         rdf:about="">
        <dc:format>image/svg+xml</dc:format>
        <dc:type
           rdf:resource="http://purl.org/dc/dcmitype/StillImage" />
      </cc:Work>
    </rdf:RDF>
  </metadata>
  <g
     id="layer1"
     transform="translate(-244.32213,-85.591043)">
    <path
       id="path841"
       style="stroke-width:0.999999;fill:#faffff"
       class="cls-2"
       d="M 22.96875,0 A 1.82,1.82 0 0 0 22.449219,0.08007812 L 3.9492188,5.4394531 a 1.67,1.67 0 0 0 0,3.2304688 l 6.5703122,1.9101561 v 5 a 2.42,2.42 0 0 0 0.04883,0.470703 c -0.159874,0.109985 -0.299572,0.220094 -0.439453,0.330078 l -0.109375,0.08008 h -0.060547 l -0.109375,0.08984 -0.5097656,0.388672 C 8.5598249,16.469454 7.7700031,16.020857 7,15.630859 a 2.4600001,2.4600001 0 0 0 -1.1210938,-0.271484 2.5,2.5 0 0 0 -1.8105468,0.791016 31.680001,31.680001 0 0 0 -3.7089844,4.878906 2.4600001,2.4600001 0 0 0 0,2.560547 c 0.60997795,1.240002 1.3508128,2.239924 2.0507812,3.169922 v 8.910156 A 2.42,2.42 0 0 0 2.6699219,36.75 2.5200001,2.5200001 0 0 0 2.3984375,37.890625 v 0.228516 0.470703 0.40039 c 0,2.88 1.2602281,6.850158 7.2402344,9.410157 a 34.480001,34.480001 0 0 0 12.3808591,2.279297 h 1.769531 a 34.480001,34.480001 0 0 0 12.38086,-2.279297 c 6,-2.559999 7.228516,-6.530157 7.228516,-9.410157 v -0.06055 a 2.9300001,2.9300001 0 0 0 0,-0.330079 v -0.708984 a 2.3400001,2.3400001 0 0 0 -0.259766,-1.130859 2.48,2.48 0 0 0 0.25,-1.089844 v -0.679688 a 0.57,0.57 0 0 0 0,-0.130859 V 26.75 l 1.580078,-2.220703 a 1,1 0 0 0 0.06055,-1 1,1 0 0 0 -0.849609,-0.509766 h -1 a 1,1 0 0 0 -0.791016,0.429688 c -0.470022,0.699998 -0.93946,1.35 -1.439453,2 l -0.07031,0.08984 v 0.101563 l -0.199218,9.080078 v 0.648438 l -6.259766,0.611328 a 1.4,1.4 0 0 0 -1.271484,1.298828 l -0.179688,2.431641 -4.728516,0.339843 -0.320312,-2.160156 A 1.42,1.42 0 0 0 26.529297,36.689453 H 19.320312 A 1.43,1.43 0 0 0 17.96875,37.890625 L 17.660156,40.050781 12.919922,39.710938 12.75,37.289062 a 1.4,1.4 0 0 0 -1.271484,-1.298828 l -6.259766,-0.609375 -0.25,-9.730468 v -0.09961 l -0.058594,-0.08984 A 37.340001,37.340001 0 0 1 2.7285156,22.349609 27.28,27.28 0 0 1 5.8496094,18.259766 c 1.0900157,0.569998 2.1707126,1.210392 3.2207031,1.90039 l 0.2285156,0.160156 0.2109375,0.140626 0.1894532,-0.181641 0.2011718,-0.199219 a 15.94,15.94 0 0 1 1.5292974,-1.25 1.3,1.3 0 0 0 0.199218,-0.15039 l 0.13086,-0.09961 0.539062,-0.390625 c 2.860006,1.580001 8.351072,1.75 10.621094,1.75 a 35.460001,35.460001 0 0 0 7.939453,-0.789062 10.81,10.81 0 0 0 2.640625,-1 6.3100002,6.3100002 0 0 1 0.539062,0.388671 l 0.320313,0.25 0.150391,0.111329 a 1,1 0 0 0 1.460937,-0.230469 v -0.05078 l 0.429688,-0.660157 a 1,1 0 0 0 -0.210938,-1.279296 l -0.230469,-0.169922 a 5.7400002,5.7400002 0 0 0 -0.46875,-0.34961 2.5,2.5 0 0 0 0,-0.470703 v -5 l 5.71875,-1.6601561 v 4.6914061 a 0.39,0.39 0 0 0 -0.08008,0.09961 l -3.798828,5.740235 a 1.32,1.32 0 0 0 -0.179687,1.269531 1.33,1.33 0 0 0 1.179687,0.708984 h 7.638672 a 1.35,1.35 0 0 0 1.130859,-2.089843 h -0.04102 l -3.798828,-5.738281 -0.08008,-0.101563 V 6.8300781 A 1.69,1.69 0 0 0 41.96875,5.4394531 L 23.429688,0.08007812 A 1.7500001,1.7500001 0 0 0 22.96875,0 Z m 0,2.6894531 15,4.3710938 L 34.400391,8.0898438 33.080078,8.4707031 22.96875,11.419922 12.75,8.4707031 11.429688,8.0898438 l -3.5605474,-1 z m 9.740234,8.6503909 v 4.169922 a 5.0000001,5.0000001 0 0 1 -2.449218,1 34.100001,34.100001 0 0 1 -7.310547,0.720703 33.800001,33.800001 0 0 1 -7.330078,-0.720703 c -1.869997,-0.449998 -2.368744,-0.920003 -2.46875,-1 v -4.160157 l 9.279297,2.689453 a 2,2 0 0 0 0.490234,0.06055 2,2 0 0 0 0.480469,-0.06055 z m -0.09961,14.849609 a 3.6200001,3.6200001 0 1 0 3.609375,3.640625 3.6200001,3.6200001 0 0 0 -3.609375,-3.640625 z m -19.390625,0.02148 a 3.6100001,3.6100001 0 0 0 -3.609375,3.61914 3.6200001,3.6200001 0 1 0 3.609375,-3.61914 z m 9.65625,0.697265 a 2,2 0 0 0 -1.90625,1.992188 v 3.779297 a 2,2 0 0 0 4,0 V 28.900391 A 2,2 0 0 0 22.875,26.908203 Z M 5.1894531,38.199219 9.96875,38.669922 l 0.169922,2.449219 a 1.42,1.42 0 0 0 1.300781,1.310547 l 7.259766,0.519531 h 0.09961 A 1.43,1.43 0 0 0 20.189453,41.75 l 0.330078,-2.25 h 4.75 l 0.339844,2.25 A 1.42,1.42 0 0 0 27,42.949219 h 0.09961 l 7.25,-0.519531 a 1.41,1.41 0 0 0 1.300782,-1.298829 l 0.169921,-2.460937 4.820313,-0.470703 v 0.07031 a 3.0000001,3.0000001 0 0 1 0,0.310547 v 0.410156 c 0,6.550001 -9.160716,8.909452 -17.720703,8.939454 -8.570003,0 -17.7304689,-2.389453 -17.7304689,-8.939454 v -0.410156 z"
       transform="matrix(0.26458334,0,0,0.26458334,244.32213,85.591043)" />
  </g>
</svg>
