<?xml version="1.0" encoding="UTF-8" standalone="no"?>
<!-- Created with Inkscape (http://www.inkscape.org/) -->

<svg
   version="1.1"
   id="svg2"
   xml:space="preserve"
   width="595.09082"
   height="595.09082"
   viewBox="0 0 595.09084 595.09084"
   sodipodi:docname="gdquestboy_9slice.svg"
   inkscape:version="1.1.1 (3bf5ae0, 2021-09-20)"
   xmlns:inkscape="http://www.inkscape.org/namespaces/inkscape"
   xmlns:sodipodi="http://sodipodi.sourceforge.net/DTD/sodipodi-0.dtd"
   xmlns="http://www.w3.org/2000/svg"
   xmlns:svg="http://www.w3.org/2000/svg"><defs
     id="defs6"><clipPath
       clipPathUnits="userSpaceOnUse"
       id="clipPath16"><path
         d="M 0,1000 H 1000 V 0 H 0 Z"
         id="path14" /></clipPath></defs><sodipodi:namedview
     id="namedview4"
     pagecolor="#ffffff"
     bordercolor="#111111"
     borderopacity="1"
     inkscape:pageshadow="0"
     inkscape:pageopacity="0"
     inkscape:pagecheckerboard="1"
     showgrid="false"
     inkscape:current-layer="g8" /><g
     id="g8"
     inkscape:groupmode="layer"
     inkscape:label="LearnToCodeApp_Extras_SOURCE"
     transform="matrix(1.3333333,0,0,-1.3333333,-389.86938,964.08211)"><g
       id="g945"
       transform="matrix(1.1846695,0,0,1.1846695,-76.774229,-92.432222)"
       style="stroke-width:0.844117"><path
         d="M 676.78049,311.62757 H 323.22013 c -6.4024,0 -11.59206,5.18966 -11.59206,11.59244 v 353.56036 c 0,6.40202 5.18966,11.59206 11.59206,11.59206 h 353.56036 c 6.4024,0 11.59244,-5.19004 11.59244,-11.59206 V 323.22001 c 0,-6.40278 -5.19004,-11.59244 -11.59244,-11.59244"
         style="fill:#febe40;fill-opacity:1;fill-rule:nonzero;stroke:none;stroke-width:0.844117"
         id="path20" /><path
         d="M 662.86998,329.01597 H 337.13072 c -7.68258,0 -13.91093,6.22759 -13.91093,13.91055 v 296.75891 c 0,7.68258 6.22835,13.91055 13.91093,13.91055 h 325.73926 c 7.68295,0 13.91055,-6.22797 13.91055,-13.91055 V 342.92652 c 0,-7.68296 -6.2276,-13.91055 -13.91055,-13.91055"
         style="fill:#fad87c;fill-opacity:1;fill-rule:nonzero;stroke:none;stroke-width:0.844117"
         id="path24" /><path
         d="M 662.86998,346.40398 H 337.13072 c -7.68258,0 -13.91093,6.22797 -13.91093,13.91055 v 296.75892 c 0,7.68258 6.22835,13.91092 13.91093,13.91092 h 325.73926 c 7.68295,0 13.91055,-6.22834 13.91055,-13.91092 V 360.31453 c 0,-7.68258 -6.2276,-13.91055 -13.91055,-13.91055"
         style="fill:#e97424;fill-opacity:1;fill-rule:nonzero;stroke:none;stroke-width:0.844117"
         id="path28" /><path
         d="M 662.86998,334.81173 H 337.13072 c -7.68258,0 -13.91093,6.22797 -13.91093,13.91093 v 302.55476 c 0,7.68295 6.22835,13.91055 13.91093,13.91055 h 325.73926 c 7.68295,0 13.91055,-6.2276 13.91055,-13.91055 V 348.72266 c 0,-7.68296 -6.2276,-13.91093 -13.91055,-13.91093"
         style="fill:#090a20;fill-opacity:1;fill-rule:nonzero;stroke:none;stroke-width:0.844117"
         id="path32" /><path
         d="M 665.18861,375.3841 H 334.81238 v 260.82348 h 330.37623 z"
         style="fill:#303049;fill-opacity:1;fill-rule:nonzero;stroke:none;stroke-width:0.844117"
         id="path34" /><path
         d="m 676.78049,651.2776 v -5.79622 c 0,7.67995 -6.23061,13.91093 -13.91055,13.91093 H 337.13068 c -7.67994,0 -13.91055,-6.23098 -13.91055,-13.91093 v 5.79622 c 0,7.67957 6.23061,13.91055 13.91055,13.91055 h 325.73926 c 7.67994,0 13.91055,-6.23098 13.91055,-13.91055"
         style="fill:#171830;fill-opacity:1;fill-rule:nonzero;stroke:none;stroke-width:0.844117"
         id="path38" /></g></g></svg>
