<?xml version="1.0" encoding="UTF-8" standalone="no"?>
<svg
   id="Layer_1"
   data-name="Layer 1"
   viewBox="0 0 281.42 53.02"
   version="1.1"
   xmlns="http://www.w3.org/2000/svg"
   xmlns:svg="http://www.w3.org/2000/svg"
   xmlns:rdf="http://www.w3.org/1999/02/22-rdf-syntax-ns#"
   xmlns:cc="http://creativecommons.org/ns#"
   xmlns:dc="http://purl.org/dc/elements/1.1/">
  <defs
     id="defs4">
    <style
       id="style2">.cls-1{fill:#928fb8;}</style>
  </defs>
  <title
     id="title6">GDQUESTBOY_Logo</title>
  <path
     id="path8"
     class="cls-1"
     d="M 16.830078 0 C 11.470078 0 8.2138802 3.0298437 7.0605469 9.0898438 L 0.30078125 44.089844 C -0.83255208 50.029844 1.283724 53 6.6503906 53 L 20.240234 53 L 25.199219 27.179688 L 14.640625 27.179688 L 13.359375 33.599609 L 17 33.599609 L 14.490234 46.599609 L 9.7597656 46.599609 C 7.7497656 46.599609 7 45.319766 7.5 42.759766 L 13.759766 10.269531 C 14.269766 7.7195313 15.550781 6.4296875 17.550781 6.4296875 L 19.320312 6.4296875 C 21.290313 6.4296875 22.019531 7.7195313 21.519531 10.269531 L 20.630859 15 L 27.570312 15 L 28.679688 9.2304688 C 29.833021 3.0771354 27.460547 0 21.560547 0 L 16.830078 0 z M 36 0 L 25.849609 53 L 39.359375 53 C 44.926042 53 48.190391 50.44651 49.150391 45.339844 L 55.939453 10.189453 C 57.239453 3.3961198 54.640625 0 48.140625 0 L 36 0 z M 71.919922 0 C 66.413255 0 63.083021 3.0236458 61.929688 9.0703125 L 55.160156 44.070312 C 54.03349 50.023646 56.250547 53 61.810547 53 L 80.710938 53 L 81.929688 46.599609 L 77.929688 46.599609 L 85.189453 9.0800781 C 86.33612 3.0267448 84.153958 0 78.640625 0 L 71.919922 0 z M 94.150391 0 L 85.900391 42.900391 C 84.633724 49.633724 86.770547 53 92.310547 53 L 98.140625 53 C 103.75396 53 107.20357 49.666667 108.49023 43 L 116.74023 0 L 109.80078 0 L 101.51953 43.130859 C 101.03953 45.444193 99.866667 46.599609 98 46.599609 L 95.130859 46.599609 C 93.117526 46.592943 92.34388 45.437526 92.810547 43.130859 L 101.08984 0 L 94.150391 0 z M 123.24023 0 L 113.06055 53 L 130.33984 53 L 131.53906 46.599609 L 121.19922 46.599609 L 124.64062 29 L 133.80078 29 L 135 22.519531 L 125.84961 22.519531 L 129 6.4199219 L 139.32031 6.4199219 L 140.51953 0 L 123.24023 0 z M 153.07031 0 C 147.51698 1.1842379e-15 144.16 3.0267448 143 9.0800781 L 140.88086 19.939453 A 10.9 10.9 0 0 0 140.71094 23.300781 A 3.57 3.57 0 0 0 141.71094 25.400391 A 14.76 14.76 0 0 0 144.5 27.400391 L 150.2793 31.150391 A 12.19 12.19 0 0 1 151.90039 32.480469 C 152.22039 32.830469 152.28961 33.480469 152.09961 34.480469 L 150.32031 43.480469 C 149.93031 45.580469 148.82 46.580078 147 46.580078 L 145.78906 46.580078 C 143.71906 46.580078 142.87953 45.540469 143.26953 43.480469 L 143.89062 40.589844 L 136.94922 40.589844 L 136.42969 43.25 C 135.17635 49.75 137.33062 53 142.89062 53 L 147.09961 53 C 152.71961 53 156.09404 50.032943 157.2207 44.099609 L 159.40039 32.800781 A 8.91 8.91 0 0 0 159.59961 29 A 4.12 4.12 0 0 0 158.56055 27.330078 A 20.82 20.82 0 0 0 155.83984 25.330078 L 150 21.710938 A 10.79 10.79 0 0 1 148.31055 20.390625 C 147.99055 20.040625 147.91938 19.390625 148.10938 18.390625 L 149.78906 9.5996094 C 150.2024 7.4796094 151.41016 6.4199219 153.41016 6.4199219 L 154.50977 6.4199219 C 156.52977 6.4199219 157.32086 7.4796094 156.88086 9.5996094 L 156 14.25 L 163 14.25 L 164 9.0800781 C 165.13333 3.0267448 162.91938 0 157.35938 0 L 153.07031 0 z M 169 0 L 167.68945 6.4199219 L 174.33984 6.4199219 L 165.33984 53.019531 L 172.33984 53.019531 L 181.33984 6.4199219 L 188 6.4199219 L 189.24023 0 L 169 0 z M 204.75977 0 L 194.53906 53 L 208.53906 53 C 213.80573 53 216.93635 50.372474 217.92969 45.119141 L 220.53906 31.830078 C 221.09906 28.870078 219.59 26.859531 216 25.769531 L 216.01953 25.400391 C 219.43953 24.713724 221.43953 22.842396 222.01953 19.789062 L 224.01953 9.5996094 C 225.2662 3.1996094 222.81039 0 216.65039 0 L 204.75977 0 z M 240.35938 0 C 234.78604 1.1842379e-15 231.43411 3.0267448 230.30078 9.0800781 L 223.53906 44 C 222.39906 50 224.63667 53 230.25 53 L 236.75 53 C 242.36333 53 245.74086 50 246.88086 44 L 253.61914 9.0800781 C 254.76581 3.0267448 252.56 0 247 0 L 240.35938 0 z M 257.49023 0 L 259.65039 33.509766 L 255.86914 53 L 262.82031 53 L 266.58984 33.529297 L 281.41992 0 L 274.55078 0 L 265.40039 23 L 265.17969 23 L 264.35938 0 L 257.49023 0 z M 240.78906 6.3691406 L 244.10938 6.3691406 C 246.18271 6.3758073 247.02419 7.4138021 246.63086 9.4804688 L 240.00977 43.480469 C 239.61977 45.580469 238.48914 46.580078 236.61914 46.580078 L 233.07031 46.580078 L 233.07031 46.599609 C 231.00031 46.599609 230.16078 45.560469 230.55078 43.480469 L 237.16992 9.4804688 A 3.38 3.38 0 0 1 240.78906 6.3691406 z M 41.769531 6.390625 L 46.660156 6.390625 C 48.720156 6.390625 49.5 7.6804688 49 10.230469 L 42.449219 44.230469 C 42.129219 45.810469 41.060234 46.599609 39.240234 46.599609 L 34 46.599609 L 41.769531 6.390625 z M 72.419922 6.4199219 L 75.669922 6.4199219 C 77.743255 6.4265885 78.582786 7.4626302 78.189453 9.5292969 L 71 46.599609 L 64.710938 46.630859 C 62.640937 46.630859 61.799453 45.589297 62.189453 43.529297 L 68.810547 9.5292969 A 3.37 3.37 0 0 1 72.419922 6.4199219 z M 210.51953 6.4199219 L 214.65039 6.4199219 C 216.72039 6.4199219 217.5 7.7097656 217 10.259766 L 215.38086 18.539062 A 4.35 4.35 0 0 1 210.63086 22.380859 L 207.38086 22.380859 L 210.51953 6.4199219 z M 206.2207 28.800781 L 210.06055 28.800781 C 212.82055 28.800781 213.94922 30.056979 213.44922 32.570312 L 211.21094 44.310547 C 210.89094 45.830547 209.82 46.599609 208 46.599609 L 202.7207 46.599609 L 206.2207 28.800781 z " />
  <metadata
     id="metadata981">
    <rdf:RDF>
      <cc:Work
         rdf:about="">
        <dc:title>GDQUESTBOY_Logo</dc:title>
      </cc:Work>
    </rdf:RDF>
  </metadata>
</svg>
